<?xml version="1.0" encoding="utf-8"?>
<!-- Generator: Adobe Illustrator 16.0.4, SVG Export Plug-In . SVG Version: 6.00 Build 0)  -->
<!DOCTYPE svg PUBLIC "-//W3C//DTD SVG 1.1//EN" "http://www.w3.org/Graphics/SVG/1.1/DTD/svg11.dtd">
<svg version="1.1" id="Layer_1" xmlns="http://www.w3.org/2000/svg" xmlns:xlink="http://www.w3.org/1999/xlink" x="0px" y="0px"
	 width="1117.091px" height="927.273px" viewBox="0 0 1117.091 927.273" enable-background="new 0 0 1117.091 927.273"
	 xml:space="preserve">
<path fill-rule="evenodd" clip-rule="evenodd" fill="none" stroke="#000000" stroke-miterlimit="10" d="M152.795,445.261
	c20.097,4.936,41.663,10.382,62.659,8.011c4.45-0.502,27.226-0.443,29.608,2.489c1.034,1.17,2.068,2.341,3.102,3.511
	c0,7.246-2.47,14.889-2.131,21.784c0.253,5.14,4.179,8.73,3.239,14.216c-3.958,23.09-14.651,45.198-21.597,67.688
	c-5.689,18.423-7.795,37.083-12.989,55.67c-1.961,7.017,8.559,49.468-2.472,48.17c-8.155-1.315-45.685-3.26-51.852-0.256
	c-21.695,10.569-39.597,30.879-62.182,39.818c-9.276,18.553-18.152,41.39-10.415,61.653c1.458,3.82,4.782,16.051,8.795,16.568
	c6.7,0.419,12.125-2.523,18.528-2.625c8.361-0.133,23.527,2.812,32.131,4.364c7.995,1.441,22.049,7.88,30.051,4.585
	c19.366,4.711,39.168,9.63,58.909,6.545c12.18-12.726,24.365-25.456,36.545-38.182c7.885-11.215,15.773-22.433,23.659-33.647
	c10.182-12.113,21.966-16.806,25.875-32.932c11.512-47.487,1.301-98.353,11.846-146.216c3.05-13.841,1.008-26.398,9.375-38.949
	c10.467-15.701,25.343-22.016,40.517-30.801c16.937,0.546,32.822-3.897,49.653-5.233c21.265-0.233,42.536-0.466,63.801-0.699
	c6.562,1.33,13.125,2.66,19.688,3.989c7.982,0.603,15.967,1.205,23.949,1.807c9.272-0.5,18.546-1,27.818-1.5
	c25.634,0.358,51.275,0.716,76.909,1.074c23.566,0,45.785-6.386,68.693-8.438c7.647,0.818,15.296,1.636,22.943,2.455
	c17.023,16.491,18.603,22.77,23.489,44.591c1.386,4.772,2.772,9.546,4.159,14.318c-1.512,5.465-3.023,10.932-4.534,16.397
	c-3.048,17.178-4.72,34.702-7.483,51.835c-3.125,19.375,0.429,39.91,2.148,58.824c-0.29,7.465-0.58,14.933-0.869,22.397
	c-4.937,4.638-10.127,10.441-16.654,12.904c-9.922,3.744-22.001,3.039-32.438,3.528c-16.731,1.54-33.467,3.08-50.199,4.619
	c-9.734,1.163-18.667,2.789-27.307,7.773c-1.302,0.751-1.826,1.563-2.847,0.324c-6.85-8.879-2.815-17.27-4.278-27.511
	c-1.795-4.954-3.591-9.91-5.386-14.864c-0.903-7.954-1.807-15.91-2.71-23.864c-3.872-16.169-18.663-27.517-28.688-39.477
	c-3.199-6.909-6.398-13.819-9.597-20.727c-5.261-2.228-10.523-4.455-15.784-6.682c-25.448-6.362-36.546,5.18-55.637,18.256
	c-5.385,3.688-18.983,8.329-19.892,15.375c-1.227,9.508-4.178,21.887-0.596,31.312c3.425,9.013,9.773,14.257,11.438,24.392
	c5.048,30.746,1.833,60.273,12.596,89.488c2.194,5.955,2.661,11.975,6.239,17.387c5.093,7.705,32.959,40.172,40.415,38.488
	c16.683-4.449,40.513-7.49,57.852-6.665c20.08,0.956,40.815,4.897,61.125,3.051c22.825-2.075,42.286-14.398,64.398-17.608
	c22.157,0,44.32,0,66.477,0c27.318-1.28,54.444-7.209,81.835-8.949c20.583-1.307,40.714,1.518,61.091,2.165
	c6.729,0.213,11.885-1.969,18.613-0.511c4.587,0.994,24.312,1.904,25.364-3.529c8.334-43.062,20.616-73.497-31.142-93.102
	c-8.283-0.903-16.569-1.807-24.852-2.71c-15.024-1.431-29.744,0.496-44.728,1.432c-3.786,0.236-12.683,2.643-14.438-1.159
	c-9.507-23.336-16.173-48.188-22.96-72.478c-2.074-9.794-4.148-19.592-6.222-29.386c-0.028-14.544-0.057-29.092-0.085-43.636
	c-0.795-14.277-1.591-28.559-2.386-42.835c8.288-8.028,22.036-5.229,32.455-5.88c22.85-1.428,45.959-6.936,66.017-16.193
	c1.25-13.329,2.308-25.239-2.745-37.636c-2.92-7.167-7.545-18.541-9.249-23.253c-2.972-3.326-9.928-7.799-16.881-12.27
	c-8.803-4.611-17.467-11.035-27.375-13.347c-18.893-4.408-46.274-1.533-65.932-2.147c-8.381-0.262-17.004-3.532-25.653-3.938
	c-16.18-0.205-32.365-0.409-48.545-0.614c-15.96-1.52-32.061-1.058-48,0.46c-3.882,0.37-14.757,3.475-13.755-1.534
	c2.539-14.942,5.08-29.888,7.619-44.83c0.051-5.63,0.103-11.262,0.153-16.892c-6.464-6.464-9.661-12.816-13.006-21.307
	c-4.931-9.13-9.864-18.263-14.795-27.392c-15.342-1.917-30.289,2.134-45.818,0.409c-5.38-0.915-10.762-1.829-16.142-2.744
	c-13.263,11.703-30.386,15.51-40.057,31.398c9.033,15.192,37.49,44.192,17.932,63.75c-3.25,2.903-6.5,5.807-9.75,8.71
	c-5.059-0.316-6.61-4.408-11.114-6.017c-8.124-1.17-16.251-2.341-24.375-3.511c-23.285-1.848-47.914,1.472-71.42,2.574
	c-7.999-0.363-16-0.727-24-1.091c-18.362,1.449-36.729,2.898-55.091,4.347c-7.817,0.534-15.637,1.068-23.455,1.603
	c-15.184-0.712-31.629,12.272-47.08,7.466c-5.512-1.715-7.587-6.485-13.466-11.83c-4.3-0.971-50.75-16.932-51.818-18
	c-36.868,9.891-70.342,20.053-90.409,54.614c-6.152,10.594-8.029,23.989-6.136,35.915
	C151.659,437.863,152.227,441.563,152.795,445.261z"/>
</svg>
