<?xml version="1.0" encoding="utf-8"?>
<!-- Generator: Adobe Illustrator 16.0.4, SVG Export Plug-In . SVG Version: 6.00 Build 0)  -->
<!DOCTYPE svg PUBLIC "-//W3C//DTD SVG 1.1//EN" "http://www.w3.org/Graphics/SVG/1.1/DTD/svg11.dtd">
<svg version="1.1" id="Layer_1" xmlns="http://www.w3.org/2000/svg" xmlns:xlink="http://www.w3.org/1999/xlink" x="0px" y="0px"
	 width="912.538px" height="545.091px" viewBox="0 0 912.538 545.091" enable-background="new 0 0 912.538 545.091"
	 xml:space="preserve">
<path fill-rule="evenodd" clip-rule="evenodd" fill="none" stroke="#000000" stroke-miterlimit="10" d="M67.981,181.023
	c22.959,5.639,43.641,8.223,67.219,7.796c15.924-0.289,30.029-2.405,26.958,17.239c-1.435,9.18,3.715,16.727,2.3,24.977
	c-2.405,14.031-7.225,27.492-12.134,40.796c-9.223,24.995-23.45,59.132-22.689,86.105c0.366,12.981,5.146,26.955,2.301,39.88
	c-2.004,9.105-24.622,3.161-31.206,2.999C59.12,399.79,6.356,437.413,0.605,478.666c-1.955,14.022,0.7,45.17,20.519,40.564
	c21.187-4.925,41.204,5.042,61.764,8.037c24.211,3.526,59.02,15.833,77.616-3.596c20.958-21.897,36.917-50.04,58.857-70.272
	c39.609-36.525,20.507-108.158,27.349-156.717c8.584-60.928,29.445-79.261,89.652-87.967c49.634-7.177,98.252,4.807,147.733,2.139
	c29.995,0.419,61.005,3.144,90.903,0.393c24.476-2.251,65.994-18.899,84.954,2.211c29.874,33.263,14.634,80.474,8.319,119.628
	c-4.299,26.653,2.323,54.307,1.279,81.221c-21.068,19.791-46.888,16.229-74.19,18.742c-3.323,0.306-56.13,9.342-55.253,10.406
	c-7.525-9.755-9.572-41.564-11.02-54.307c-2.68-23.598-15.521-34.085-30.042-51.409c-10.441-22.551-28.554-37.639-55.583-25.57
	c-8.63,3.853-44.023,21.69-45.327,31.792c-3.19,24.73,7.216,33.624,10.841,55.705c7.49,45.621,1.882,90.669,35.33,126.65
	c27.894,30.006,67.429,10.393,106.114,14.067c27.382,2.601,49.617-0.432,75.535-9.588c25.886-9.146,51.759-6.987,78.829-6.987
	c27.493,0,54.197-4.887,81.455-7.771c28.11-2.974,56.26,3.417,84.073,0.265c16.668-1.889,32.215,8.247,36.633-13.032
	c3.263-15.716,8.139-33.078,4.32-49.145c-11.389-47.914-80.245-36.444-114.985-34.586c-27.912,1.492-35.688-129.311-35.724-147.594
	c-1.438-25.81-11.197-49.17,21.768-48.651c25.252,0.397,51.429-5.693,74.318-16.258c4.172-44.503-19.005-83.081-66.329-88.153
	c-46.67-5.001-95.04-4.112-142.044-5.834c-4.129-0.151-50.361,2.697-49.764-0.291c3.538-20.817,15.021-50.087,2.271-68.232
	C584.667,21.601,588.439,0.06,555.637,2.468c-24.921,1.829-34.617-3.654-56.166,9.064c-25.448,15.02-22.145,19.57-8.212,41.556
	c13.341,21.054,11.751,34.36-6.618,50.77c-6.957-0.435-15.72-6.68-23.301-7.772c-13.671-1.969-26.791-2.603-40.617-1.965
	c-26.856,1.238-54.074,0.673-80.763,2.779c-23.864,1.883-50.647,0.573-74.017,5.827c-23.412,5.264-32.31,11.937-51.302-5.328
	c-28.637-6.468-44.328-20.935-73.451-11.84C95.037,99.971,60.015,129.155,67.981,181.023
	C88.078,185.959,67.413,177.324,67.981,181.023z"/>
</svg>
